<svg width="957" height="473" viewBox="0 0 957 473" fill="none" xmlns="http://www.w3.org/2000/svg">
<g clip-path="url(#clip0_12_38)">
<path fill-rule="evenodd" clip-rule="evenodd" d="M792 573C904.061 573 995.549 485.023 1001 374.45H885.591C880.386 421.474 840.47 458.05 792 458.05C743.53 458.05 703.614 421.474 698.409 374.45H583C588.451 485.023 679.939 573 792 573ZM583.776 343.1C594.275 237.486 683.493 155 792 155C900.507 155 989.725 237.486 1000.22 343.1H883.832C874.317 301.217 836.814 269.95 792 269.95C747.186 269.95 709.683 301.217 700.168 343.1H583.776Z" fill="white" fill-opacity="0.3"/>
<path d="M853.909 374.45C854.48 371.052 854.777 367.56 854.777 364C854.777 356.672 853.518 349.637 851.205 343.1C842.587 318.747 819.334 301.3 792 301.3C764.666 301.3 741.413 318.747 732.795 343.1C730.482 349.637 729.223 356.672 729.223 364C729.223 367.56 729.52 371.052 730.091 374.45C735.072 404.104 760.894 426.7 792 426.7C823.106 426.7 848.928 404.104 853.909 374.45Z" fill="white" fill-opacity="0.3"/>
</g>
<defs>
<clipPath id="clip0_12_38">
<rect width="957" height="473" fill="white"/>
</clipPath>
</defs>
</svg>
