<svg width="200" height="200" viewBox="0 0 200 200" fill="none" xmlns="http://www.w3.org/2000/svg">
<path d="M130 100C130 101.704 129.858 103.374 129.585 105C127.205 119.189 114.865 130 100 130C85.135 130 72.7952 119.189 70.4148 105C70.142 103.374 70 101.704 70 100C70 96.4936 70.6015 93.1278 71.707 90C75.8254 78.3481 86.9378 70 100 70C113.062 70 124.175 78.3481 128.293 90C129.398 93.1278 130 96.4936 130 100Z" fill="white"/>
<path fill-rule="evenodd" clip-rule="evenodd" d="M199.877 105C197.272 157.906 153.552 200 100 200C46.4481 200 2.72796 157.906 0.122803 105H55.2746C57.7618 127.5 76.8372 145 100 145C123.163 145 142.238 127.5 144.725 105H199.877ZM129.585 105C129.858 103.374 130 101.704 130 100C130 96.4936 129.398 93.1278 128.293 90C124.175 78.3481 113.062 70 100 70C86.9378 70 75.8254 78.3481 71.707 90C70.6015 93.1278 70 96.4936 70 100C70 101.704 70.142 103.374 70.4148 105C72.7952 119.189 85.135 130 100 130C114.865 130 127.205 119.189 129.585 105ZM100 0C48.1465 0 5.51097 39.4668 0.493729 90H56.1151C60.6624 69.9601 78.5841 55 100 55C121.416 55 139.338 69.9601 143.885 90H199.506C194.489 39.4668 151.853 0 100 0Z" fill="white"/>
</svg>
