<svg width="957" height="473" viewBox="0 0 957 473" fill="none" xmlns="http://www.w3.org/2000/svg">
<g clip-path="url(#clip0_12_38)">
<path fill-rule="evenodd" clip-rule="evenodd" d="M737.907 565.878C846.149 594.882 957.29 533.581 991.174 428.187L879.697 398.317C862.499 442.392 814.476 467.39 767.658 454.845C720.84 442.3 691.75 396.64 698.893 349.871L587.417 320.001C564.064 428.217 629.664 536.875 737.907 565.878ZM596.281 289.92C633.757 190.621 741.283 134.038 846.093 162.121C950.903 190.205 1015.73 292.971 998.538 397.704L886.112 367.58C887.761 324.661 859.629 284.753 816.342 273.155C773.055 261.556 728.738 282.051 708.706 320.044L596.281 289.92Z" fill="white" fill-opacity="0.3"/>
<path d="M849.095 390.117C850.526 386.982 851.716 383.687 852.638 380.248C854.535 373.169 855.139 366.049 854.597 359.135C852.575 333.382 834.63 310.511 808.228 303.436C781.826 296.362 754.849 307.197 740.222 328.489C736.295 334.204 733.259 340.673 731.362 347.752C730.44 351.191 729.824 354.64 729.496 358.071C726.632 388.004 745.726 416.513 775.772 424.564C805.818 432.614 836.608 417.472 849.095 390.117Z" fill="white" fill-opacity="0.3"/>
</g>
<defs>
<clipPath id="clip0_12_38">
<rect width="957" height="473" fill="white"/>
</clipPath>
</defs>
</svg>
